<svg xmlns="http://www.w3.org/2000/svg" width="116.435" height="128.224" viewBox="0 0 116.435 128.224">
  <g id="Group_1" data-name="Group 1" transform="translate(-3577.5 -1861.5)">
    <path id="Exclusion_1" data-name="Exclusion 1" d="M57.721,127.224a18.1,18.1,0,0,1-8.947-2.144l-22.2-12.805L8.958,102.109a18.168,18.168,0,0,1-6.323-6.677A18.2,18.2,0,0,1,0,86.611V40.639A19.166,19.166,0,0,1,3.6,30.281a17.416,17.416,0,0,1,5.359-5.167L36.546,9.177,48.774,2.143A18.134,18.134,0,0,1,57.731,0a18.134,18.134,0,0,1,8.958,2.143L79.22,9.37l27.285,15.745a17.474,17.474,0,0,1,5.441,5.332,18.876,18.876,0,0,1,3.489,10.193V86.583A18.188,18.188,0,0,1,112.88,95.3a18.4,18.4,0,0,1-6.183,6.674c-.038.026-.071.051-.094.07l-.007.005a.587.587,0,0,1-.091.062L89.084,112.165,66.689,125.08A18.222,18.222,0,0,1,57.721,127.224Zm.011-123.79a17.987,17.987,0,0,0-8.739,2.088c-3.914,2.259-7.955,4.495-12.235,6.862-8.576,4.745-17.444,9.651-24.971,14.626A16.483,16.483,0,0,0,8.9,29.264a17.8,17.8,0,0,0-2.363,2.8,19.489,19.489,0,0,0-2.473,4.754A19.216,19.216,0,0,0,3.049,42.1v43a18.038,18.038,0,0,0,2.556,8.6,17.616,17.616,0,0,0,6.182,6.512L48.992,121.7a17.718,17.718,0,0,0,8.739,2.088A17.712,17.712,0,0,0,66.47,121.7l20.91-12.063,16.3-9.425a.513.513,0,0,0,.138-.083l.054-.027a18.1,18.1,0,0,0,6.046-6.512,17.848,17.848,0,0,0,2.5-8.491l-.027-43a18.337,18.337,0,0,0-.962-5.193,19.413,19.413,0,0,0-2.418-4.7,18.477,18.477,0,0,0-2.363-2.886,18.834,18.834,0,0,0-2.967-2.308C94.74,21.931,85.7,16.679,76.948,11.6l-.049-.028c-3.1-1.8-6.76-3.925-10.43-6.05A17.98,17.98,0,0,0,57.731,3.434Zm0,118.9a16.381,16.381,0,0,1-8.024-1.9L12.53,98.977a16.242,16.242,0,0,1-5.661-5.991A16.337,16.337,0,0,1,4.506,85.1V42.151a18.3,18.3,0,0,1,.933-4.864,16.854,16.854,0,0,1,2.308-4.4v-.027a16.136,16.136,0,0,1,2.143-2.555,14.812,14.812,0,0,1,2.639-2.034L49.707,6.787a16.385,16.385,0,0,1,8.024-1.9,16.173,16.173,0,0,1,8,1.9l37.206,21.461a16.636,16.636,0,0,1,2.693,2.116A15.372,15.372,0,0,1,107.8,33l.027.027a18.613,18.613,0,0,1,2.226,4.342,17.593,17.593,0,0,1,.907,4.782V85.1a16.213,16.213,0,0,1-2.308,7.777,16.709,16.709,0,0,1-5.551,5.99c-2.126,1.725-7.407,4.581-11.649,6.875l-.024.013-.046.025c-1.811.979-3.521,1.9-4.712,2.594L65.727,120.436A16.169,16.169,0,0,1,57.731,122.333ZM59.226,27h-.315c-10.392,0-19.24,3.578-26.3,10.634A35.335,35.335,0,0,0,22.009,63.52,35.309,35.309,0,0,0,32.615,89.487c7.056,7,16.107,10.552,26.9,10.552,10.2,0,18.595-3.1,24.95-9.205s9.563-14.067,9.563-23.685V62.311h-35.2V72.67H82.351A19.073,19.073,0,0,1,74.876,84.4a21,21,0,0,1-6.76,3.276,30.938,30.938,0,0,1-8.491,1.092,29.771,29.771,0,0,1-10.548-1.779,23.354,23.354,0,0,1-8.3-5.365,23.66,23.66,0,0,1-5.4-8.061,26.669,26.669,0,0,1-1.8-9.937,24.752,24.752,0,0,1,7.144-18.108A23.471,23.471,0,0,1,48.838,40.1a27.239,27.239,0,0,1,10.074-1.8c.153,0,.309,0,.464,0A25.072,25.072,0,0,1,71.3,41.345a21.173,21.173,0,0,1,8.354,8.105L89.6,43.708A33.054,33.054,0,0,0,76.937,31.536,36.99,36.99,0,0,0,59.226,27Z" transform="translate(3578 1862)" fill="#ff36ca" stroke="rgba(0,0,0,0)" stroke-miterlimit="10" stroke-width="1"/>
  </g>
</svg>
