<svg xmlns="http://www.w3.org/2000/svg" width="147.005" height="44.966" viewBox="0 0 147.005 44.966">
  <g id="Group_110060" data-name="Group 110060" transform="translate(8520 6691)">
    <path id="Path_155343" data-name="Path 155343" d="M12.134-28.974V-37.3H4.8v8.323h-6.39l-4.822-9.551,4.822-12.756H4.8v8.26h7.336v-8.26h6.39v22.307Zm16.335-6.082a2.234,2.234,0,0,0,1.124,1.61,4.865,4.865,0,0,0,2.544.583,10.034,10.034,0,0,0,4.171-.887v4.2a14.329,14.329,0,0,1-5.561.964,8.505,8.505,0,0,1-6.168-2.131,7.777,7.777,0,0,1-2.2-5.865,10.091,10.091,0,0,1,.969-4.527,7.172,7.172,0,0,1,2.869-3.072,8.15,8.15,0,0,1,4.193-1.112,7.92,7.92,0,0,1,4.023.964,6.283,6.283,0,0,1,2.537,2.707,9.057,9.057,0,0,1,.865,4.076v2.489Zm3.786-3.469q0-2.753-1.878-2.753a1.57,1.57,0,0,0-1.316.754,3.9,3.9,0,0,0-.621,2Zm8.659,9.551V-52.557h6.3v23.583Zm27.325-8.447A11.845,11.845,0,0,1,67.4-32.8a7.1,7.1,0,0,1-2.381,3.111,5.791,5.791,0,0,1-3.461,1.1,4.561,4.561,0,0,1-4.038-2.038h-.059v8.976h-6.3V-44.9h6.3v2.162h.059a5.446,5.446,0,0,1,1.952-1.875,5.436,5.436,0,0,1,2.721-.677,5.3,5.3,0,0,1,4.489,2.053A9.45,9.45,0,0,1,68.239-37.421Zm-6.39.2a4.32,4.32,0,0,0-.555-2.365,1.893,1.893,0,0,0-1.708-.856,1.9,1.9,0,0,0-1.627.9,4.305,4.305,0,0,0-.621,2.473v.311a4.724,4.724,0,0,0,.532,2.411,1.738,1.738,0,0,0,1.6.9,1.966,1.966,0,0,0,1.76-.988A5.251,5.251,0,0,0,61.85-37.218Z" transform="translate(-8441.234 -6629.16)" fill="#3591ff"/>
    <g id="Group_110014" data-name="Group 110014" transform="translate(-8520 -6691)">
      <path id="Path_155334" data-name="Path 155334" d="M125.256,274.131V256.946h3.966V251.84H125.21v-.912c0-2.507,1.186-4.513,3.966-4.513a5.972,5.972,0,0,1,2.644.455v27.26h6.929v-31a18.049,18.049,0,0,0-8.57-1.87c-3.555,0-6.336.776-8.479,2.508a9.484,9.484,0,0,0-3.419,7.065v1h-2.918v5.106h2.918v17.185Z" transform="translate(-102.41 -241.264)" fill="#fff" fill-rule="evenodd"/>
      <path id="Path_155335" data-name="Path 155335" d="M195.849,278.736a16.5,16.5,0,0,0,.228-2.735c0-5.516-2.735-11.123-9.937-11.123-7.75,0-11.26,6.246-11.26,11.9,0,6.974,4.331,11.4,11.9,11.4a21.99,21.99,0,0,0,8.069-1.413l-.912-4.7a19.635,19.635,0,0,1-6.154.912c-3.237,0-6.063-1.367-6.291-4.24ZM181.444,274c.182-1.87,1.367-4.513,4.285-4.513,3.191,0,3.92,2.826,3.92,4.513Z" transform="translate(-136.533 -254.803)" fill="#fff" fill-rule="evenodd"/>
      <path id="Path_155336" data-name="Path 155336" d="M221.894,266.054l15.317,22.291h7.841l-15.408-22.291Z" transform="translate(-163.49 -255.478)" fill="#fff" fill-rule="evenodd"/>
      <path id="Path_155342" data-name="Path 155342" d="M97.507,293.678c25.035,11.481,51.988-1.236,61.419-27.56l.323-.045h7.207c-10.579,25.082-36.267,42.842-66.151,30.205A47.808,47.808,0,0,1,85,285.949a47.926,47.926,0,0,0,12.507,7.729Z" transform="translate(-85 -255.489)" fill="#fff" fill-rule="evenodd"/>
    </g>
  </g>
</svg>
