<svg xmlns="http://www.w3.org/2000/svg" xmlns:xlink="http://www.w3.org/1999/xlink" width="84.517" height="94" viewBox="0 0 84.517 94">
  <defs>
    <clipPath id="clip-path">
      <path id="Path_743" data-name="Path 743" d="M0,0H84.517L73.31,36.626,64.167,63.171V94H0Z" transform="translate(1732 3259)" fill="#fff"/>
    </clipPath>
  </defs>
  <g id="Mask_Group_1" data-name="Mask Group 1" transform="translate(-1732 -3259)" clip-path="url(#clip-path)">
    <path id="Path_739" data-name="Path 739" d="M5520.357,2991.865a5.422,5.422,0,0,0,2.391-2.835,6.272,6.272,0,0,0,.305-2.6,9.976,9.976,0,0,0-.24-1.6.287.287,0,0,0-.107-.194.292.292,0,0,0-.237.007,14.437,14.437,0,0,1-4.088,1.106c-.346.054-3.383,0-3.461.386.257-1.261,1.22-2.522,1.74-3.692a18.121,18.121,0,0,0,1.443-5.531c.432-4.358-.9-12.153-5.53-14.142-2.094-.9-4.293-.208-6.329.478a38.586,38.586,0,0,0-4.628,1.9c-.685.335-1.362.691-2.035,1.049a9.346,9.346,0,0,0-2.123,1.25,21.03,21.03,0,0,0-3.86,2.946,46.264,46.264,0,0,0-3.22,4.121,73.746,73.746,0,0,1-9.158,10.6,10.408,10.408,0,0,1-6.208,2.3,11.011,11.011,0,0,0,.246-3.854c-.161-5.735-3.15-10.339-5.089-16.641-.081-2.1,2.262-3.473,2.1-5.735-.161-2.423-3.151-3.716-5.574-3.473-3.635.08-3.473,4.523-4.038,6.139-3.959,6.22-7.837,11.228-10.017,14.459-1.041,1.543-2.366,2.879-3.49,4.358a14.791,14.791,0,0,1-7.729,5.417l-1.616.485a21.5,21.5,0,0,0,.162-3.959c-.162-5.735-3.151-10.34-5.09-16.641-.08-2.1,2.263-3.473,2.1-5.735-.162-2.423-3.151-3.716-5.574-3.473-3.635.08-3.474,4.523-4.039,6.139-3.958,6.22-7.836,11.228-10.017,14.459a27.405,27.405,0,0,1-2.093,2.566c-1.681,1.859-4.718,5.5-5.954,6.871-1.13,1.293-6.058,5.655-9.208,4.928-.889-.323-1.455-2.989-1.455-4.2,0-3.311,1.777-6.623,3.8-9.451a24.727,24.727,0,0,0,2.5-3.392c.162-.324,4.12-6.3,4.12-8.16,0-1.211-.485-4.2-2.181-4.281a4.581,4.581,0,0,0-4.2,2.666c-.081-.646-1.616-2.02-1.616-2.585-.969-1.05-3.393-1.7-5.332-1.7a25.815,25.815,0,0,0-17.933,7.512c-5.17,5.412-9.774,13.248-9.936,19.791a18.329,18.329,0,0,0,.182,3.125,19.693,19.693,0,0,1-8.237,2.641c-3.144.217-6.208-1.119-8.815-2.765a67.279,67.279,0,0,1-5.4-4.127c-1.316-1.03-2.863-1.86-3.533-3.492-.749-1.824.328-3.544,1.251-5.056a31.4,31.4,0,0,0,3.016-6.211c.469-1.382.65-3.2,2.158-3.881,2.12-.957,4.2-1.344,6.163-2.209a19.949,19.949,0,0,0,3.579-2.11c3.031-1.83,5.129-3.108,7.651-6.441a88.319,88.319,0,0,0,6.281-8.694,18.478,18.478,0,0,0,1.984-9.935c-.2-2.813-.983-5.87-3.6-7.361a9.364,9.364,0,0,0-4.528-1.015,15.6,15.6,0,0,0-10.367,4.312c-6.868,6.063-10.181,15.524-12.868,23.483-.425,2.054-.3,2.693-2.4,2.838a15.462,15.462,0,0,1-5.682-.854,21.6,21.6,0,0,1-3.048-1.235c-.486-.242-.968-.5-1.429-.788a1.669,1.669,0,0,0-2.543.513,6,6,0,0,0,.322,5.707c1.262,2.3,3.385,2.779,5.7,3.587a44.781,44.781,0,0,0,5.32,1.505c-.274,1.881-2.129,5.492-3.36,7.6-.209.351-.486,1.145-.835,1.377-1.481.984-3.669-.722-4.943-1.381a12.681,12.681,0,0,0-6.772-1.151c-8.462.586-16.975,6.276-16.35,15.3a13.861,13.861,0,0,0,5.3,10.007,12.911,12.911,0,0,0,5.339,2.411c4.971.979,10.365-1.683,14.144-4.728.314-.254,1.5-1.668,1.832-1.668a25.638,25.638,0,0,0,2.93-3.618,27.567,27.567,0,0,1,1.678-2.946,2.246,2.246,0,0,1,.73.03c1.881.482,3.123,3.139,4.441,4.431a23.317,23.317,0,0,0,5.7,4.091,22.975,22.975,0,0,0,12.593,2.5c3.493-.348,7.446-.981,9.705-3.966a5.978,5.978,0,0,0,4.146,1.638c6.867,0,9.936-3.473,13.975-6.947,0-.161.646-.808.727-.888.242-.243,1.293-1.293,2.1-2.02a24.81,24.81,0,0,0-.242,2.908c0,2.342,3.554,7.351,6.705,7.351,4.174,0,8.082-2.18,11.185-4.822A43.971,43.971,0,0,0,5415,2991.5a67.426,67.426,0,0,1,4.6-5.615c2.1-2.03,3.741-4.659,5.514-6.98a44.034,44.034,0,0,1,4.5-5.6l1.7,5.331c.727,0,1.535,8.4,1.05,10.744-1.292.162-5.412,0-7.028.323-6.543,1.212-10.1,3.716-10.1,10.017,0,3.878,4.847,5.978,8.562,5.978,3.312,0,6.463-.4,9.21-2.1,2.18-1.535,6.22-5.332,6.058-8.725,3.958-.323,5.251-.727,8-2.181,4.021-2.129,6.553-5.817,9.193-9.368,2.207-2.968,4.446-5.924,6.748-8.821a18.128,18.128,0,0,0,1.9-2.248l1.7,5.332c.726,0,1.535,8.4,1.049,10.743-1.292.162-5.412,0-7.028.323-6.542,1.212-10.1,3.717-10.1,10.017,0,3.878,4.847,5.978,8.562,5.978,3.311,0,6.462-.4,9.209-2.1a15.108,15.108,0,0,0,4.108-3.925c.268-.362,2.566-4.85,1.95-4.8,3.959-.323,5.251-.727,8-2.181.152-.1.3-.2.447-.3a17.5,17.5,0,0,0-.286,4.649c.375,4.194,4.341,7.925,8.39,8.649,4.106.734,9.036-.791,12.423-3.1,3.123-2.133,5.418-5.221,7.864-8.049.259-.3,2.333-.171,2.776-.209q1.482-.124,2.957-.314A8.967,8.967,0,0,0,5520.357,2991.865Zm-166.121-39.185.006.08c1.119-3.721,2.827-5.945,6.653-10.339a7.007,7.007,0,0,1,3.392-1.288,4.771,4.771,0,0,1,1.973.43l.023.322a11.823,11.823,0,0,1-.822,4.511l.017.242c-.3.344-.942,1.6-1.461,2.287-3.206,5.162-8.148,9.8-12.316,10.408C5351.628,2958.285,5352.265,2959.294,5354.236,2952.68Zm-34.64,44.667a4.95,4.95,0,0,1-4.912-4.276c-.335-4.835,5.442-6.773,9.874-7.08a.811.811,0,0,0,.328.058c1.134,0,5.289.363,5.661,1.066C5330.915,2992.433,5325.075,2996.968,5319.6,2997.347Zm77.831-23.007c-3.07,4.362-8.079,10.743-9.936,12.359-2.5,2.181-5.9,6.382-9.371,6.867a3.083,3.083,0,0,1-1.174-.6,5.092,5.092,0,0,1-1.2-2.66,8.4,8.4,0,0,1-.045-.862c0-4.6,3.231-9.209,7.432-14.056,3.069-3.555,8.4-6.624,12.521-6.624,1.05,0,2.181,1.777,2.181,2.666A11,11,0,0,1,5397.427,2974.34Zm27.757,25.217a4.4,4.4,0,0,1-2.262-.4c-1.05-1.455,2.585-4.524,8.159-3.232C5430.758,2998.184,5426.8,2999.315,5425.184,2999.557Zm35.291-1.05a4.389,4.389,0,0,1-2.262-.4c-1.05-1.455,2.586-4.524,8.159-3.231C5466.05,2997.134,5462.091,2998.265,5460.475,2998.507Zm31.908-.741c-1.05,0-2.746-1.131-2.827-2.02-.808-4.281,2.1-12.44,5.007-14.136v.162c.082,1.131-.726,2.019-.645,2.908.242,3.716,2.18,5.816,6.462,7.351.565.323,1.7.242,2.1.807C5499.977,2995.1,5496.745,2997.766,5492.383,2997.766Zm14.3-11.471c-1.374.323-5.817-.646-6.463-2.262-.889-2.261.646-6.381,1.858-8.239,1.291-1.939,4.6-4.281,7.028-4.281,1.211.08,1.857,1.453,1.857,2.342C5511.205,2976.44,5510.478,2984.76,5506.682,2986.295Z" transform="translate(-3566.002 332.031)" fill="#ff2e42"/>
  </g>
</svg>
