<svg xmlns="http://www.w3.org/2000/svg" width="116.435" height="128.233" viewBox="0 0 116.435 128.233">
  <g id="Group_1" data-name="Group 1" transform="translate(-155.782 -304.5)">
    <g id="Ellipse_1" data-name="Ellipse 1" transform="translate(163 314)" fill="#fff" stroke="#707070" stroke-width="1">
      <ellipse cx="51" cy="54.5" rx="51" ry="54.5" stroke="none"/>
      <ellipse cx="51" cy="54.5" rx="50.5" ry="54" fill="none"/>
    </g>
    <g id="Group_1-2" data-name="Group 1" transform="translate(-3421.718 -1556.996)">
      <path id="Exclusion_1" data-name="Exclusion 1" d="M57.721,127.224a18.1,18.1,0,0,1-8.947-2.144l-22.2-12.805L8.958,102.109a18.168,18.168,0,0,1-6.323-6.677A18.2,18.2,0,0,1,0,86.611V40.639A19.166,19.166,0,0,1,3.6,30.281a17.416,17.416,0,0,1,5.359-5.167L36.546,9.177,48.774,2.143A18.134,18.134,0,0,1,57.731,0a18.134,18.134,0,0,1,8.958,2.143L79.22,9.37l27.285,15.745a17.474,17.474,0,0,1,5.441,5.332,18.876,18.876,0,0,1,3.489,10.193V86.583A18.188,18.188,0,0,1,112.88,95.3a18.4,18.4,0,0,1-6.183,6.674c-.038.026-.071.051-.094.07l-.007,0a.587.587,0,0,1-.091.062L89.084,112.165,66.689,125.08a18.222,18.222,0,0,1-8.968,2.144Zm.011-123.79a17.987,17.987,0,0,0-8.739,2.088c-3.914,2.259-7.955,4.495-12.235,6.862-8.576,4.745-17.444,9.651-24.971,14.626A16.483,16.483,0,0,0,8.9,29.264a17.8,17.8,0,0,0-2.363,2.8,19.489,19.489,0,0,0-2.473,4.754A19.216,19.216,0,0,0,3.049,42.1v43a18.038,18.038,0,0,0,2.556,8.6,17.616,17.616,0,0,0,6.182,6.512L48.992,121.7a17.718,17.718,0,0,0,8.739,2.088A17.712,17.712,0,0,0,66.47,121.7l20.91-12.063,16.3-9.425a.513.513,0,0,0,.138-.083l.054-.027a18.1,18.1,0,0,0,6.046-6.512,17.848,17.848,0,0,0,2.5-8.491l-.027-43a18.337,18.337,0,0,0-.962-5.193,19.413,19.413,0,0,0-2.418-4.7,18.477,18.477,0,0,0-2.363-2.886,18.834,18.834,0,0,0-2.967-2.308C94.74,21.931,85.7,16.679,76.948,11.6l-.049-.028c-3.1-1.8-6.76-3.925-10.43-6.05a17.98,17.98,0,0,0-8.738-2.088Zm0,118.9a16.381,16.381,0,0,1-8.024-1.9L12.53,98.977a16.242,16.242,0,0,1-5.661-5.991A16.337,16.337,0,0,1,4.506,85.1V42.151a18.3,18.3,0,0,1,.933-4.864,16.854,16.854,0,0,1,2.308-4.4V32.86A16.136,16.136,0,0,1,9.89,30.305a14.812,14.812,0,0,1,2.639-2.034L49.707,6.787a16.385,16.385,0,0,1,8.024-1.9,16.173,16.173,0,0,1,8,1.9l37.206,21.461a16.636,16.636,0,0,1,2.693,2.116A15.372,15.372,0,0,1,107.8,33l.027.027a18.613,18.613,0,0,1,2.226,4.342,17.593,17.593,0,0,1,.907,4.782V85.1a16.213,16.213,0,0,1-2.308,7.777,16.709,16.709,0,0,1-5.551,5.99c-2.126,1.725-7.407,4.581-11.649,6.875l-.024.013-.046.025c-1.811.979-3.521,1.9-4.712,2.594L65.727,120.436a16.169,16.169,0,0,1-8,1.9ZM59.226,27h-.315a35.89,35.89,0,0,0-26.3,10.634,35.335,35.335,0,0,0-10.6,25.886A35.309,35.309,0,0,0,32.615,89.487c7.056,7,16.107,10.552,26.9,10.552,10.2,0,18.6-3.1,24.95-9.205s9.563-14.067,9.563-23.685V62.311h-35.2V72.67H82.351A19.073,19.073,0,0,1,74.876,84.4a21,21,0,0,1-6.76,3.276,30.938,30.938,0,0,1-8.491,1.092,29.771,29.771,0,0,1-10.548-1.779,23.354,23.354,0,0,1-8.3-5.365,23.66,23.66,0,0,1-5.4-8.061,26.669,26.669,0,0,1-1.8-9.937,24.752,24.752,0,0,1,7.144-18.108A23.471,23.471,0,0,1,48.838,40.1a27.239,27.239,0,0,1,10.074-1.8h.464A25.072,25.072,0,0,1,71.3,41.345a21.173,21.173,0,0,1,8.354,8.105L89.6,43.708A33.054,33.054,0,0,0,76.937,31.536,36.99,36.99,0,0,0,59.226,27Z" transform="translate(3578 1862)" fill="#ff36ca" stroke="rgba(0,0,0,0)" stroke-miterlimit="10" stroke-width="1"/>
    </g>
    <path id="Path_152559" data-name="Path 152559" d="M140.528,363.9a15.424,15.424,0,0,0-2.17-2.638,16.6,16.6,0,0,0-2.693-2.116L98.458,337.685a16.3,16.3,0,0,0-8-1.9,16.492,16.492,0,0,0-8.024,1.9L45.261,359.173a14.681,14.681,0,0,0-2.639,2.034,16.014,16.014,0,0,0-2.143,2.555v.027a16.832,16.832,0,0,0-2.308,4.4,18.173,18.173,0,0,0-.934,4.863V416a17.835,17.835,0,0,0,8.023,13.876l37.177,21.46a16.492,16.492,0,0,0,8.024,1.9,16.3,16.3,0,0,0,8-1.9L119.4,439.272c3.985-2.308,13.382-7.035,16.433-9.508a16.736,16.736,0,0,0,5.551-5.99A16.25,16.25,0,0,0,143.688,416V373.05a17.511,17.511,0,0,0-.907-4.781,18.514,18.514,0,0,0-2.226-4.342Zm-1.155-3.683a18.384,18.384,0,0,1,2.363,2.886,19.535,19.535,0,0,1,2.419,4.7,18.466,18.466,0,0,1,.962,5.193l.027,43a17.865,17.865,0,0,1-2.5,8.491A18.238,18.238,0,0,1,136.6,431l-.054.027a.577.577,0,0,1-.138.082l-16.3,9.425L99.2,452.6a19.329,19.329,0,0,1-17.477,0L44.519,431.111a17.684,17.684,0,0,1-6.183-6.512,17.96,17.96,0,0,1-2.555-8.6v-43a19.1,19.1,0,0,1,1.017-5.275,19.581,19.581,0,0,1,2.473-4.754,17.713,17.713,0,0,1,2.363-2.8,16.63,16.63,0,0,1,2.885-2.254c11.184-7.391,25.253-14.591,37.205-21.488a19.329,19.329,0,0,1,17.477,0c12.392,7.172,24.785,14.426,37.205,21.488a18.745,18.745,0,0,1,2.967,2.308Z" transform="translate(123.537 -26.01)" fill="#fff"/>
  </g>
</svg>
