<svg xmlns="http://www.w3.org/2000/svg" width="229.597" height="253.043" viewBox="0 0 229.597 253.043">
  <g id="Group_110326" data-name="Group 110326" transform="translate(-127.873 -229)">
    <path id="Path_152557" data-name="Path 152557" d="M255.29,391.346a34.526,34.526,0,0,0-10.82-10.6L190.2,349.426l-24.922-14.374c-9.783-5.684-25.851-5.684-35.634,0l-24.32,13.99-54.872,31.7a34.77,34.77,0,0,0-10.658,10.276,38.243,38.243,0,0,0-7.159,20.6v91.435c0,11.312,8.034,25.194,17.817,30.824L85.484,554.1l44.16,25.469c9.783,5.684,25.8,5.684,35.634,0l44.541-25.687,34.651-20c.108-.054.218-.164.382-.274,9.619-5.792,17.379-19.4,17.379-30.606V411.621a37.683,37.683,0,0,0-6.941-20.275Z" transform="translate(95.238 -101.79)" fill="#3591ff"/>
    <path id="Path_152559" data-name="Path 152559" d="M244.119,393.14a30.677,30.677,0,0,0-4.317-5.246,33.022,33.022,0,0,0-5.356-4.209l-74-42.685c-4.317-2.514-10.111-3.771-15.9-3.771s-11.587,1.257-15.96,3.771L54.637,383.739a29.2,29.2,0,0,0-5.248,4.045,31.85,31.85,0,0,0-4.263,5.082v.054a33.477,33.477,0,0,0-4.591,8.746,36.145,36.145,0,0,0-1.857,9.673v85.424c0,5.028,1.8,10.656,4.7,15.685s6.887,9.4,11.26,11.915l73.944,42.683c4.373,2.514,10.167,3.771,15.96,3.771s11.586-1.257,15.9-3.771l41.646-23.993c7.926-4.591,26.617-13.992,32.684-18.91a33.288,33.288,0,0,0,11.04-11.913,32.321,32.321,0,0,0,4.591-15.467V411.339a34.828,34.828,0,0,0-1.8-9.509,36.823,36.823,0,0,0-4.427-8.636Zm-2.3-7.325a36.565,36.565,0,0,1,4.7,5.74,38.854,38.854,0,0,1,4.81,9.345,36.727,36.727,0,0,1,1.913,10.328l.054,85.533c0,5.464-1.913,11.476-4.972,16.888A36.274,36.274,0,0,1,236.3,526.6l-.108.054a1.15,1.15,0,0,1-.274.164l-32.41,18.746-41.59,23.992c-4.81,2.788-11.1,4.153-17.379,4.153s-12.571-1.365-17.381-4.153l-74-42.739c-4.809-2.732-9.125-7.487-12.3-12.953-3.114-5.41-5.082-11.586-5.082-17.106V411.229A37.994,37.994,0,0,1,37.8,400.736a38.945,38.945,0,0,1,4.918-9.455,35.234,35.234,0,0,1,4.7-5.574,33.081,33.081,0,0,1,5.738-4.483c22.244-14.7,50.227-29.021,74-42.739a38.445,38.445,0,0,1,34.761,0c24.648,14.266,49.3,28.693,74,42.739a37.286,37.286,0,0,1,5.9,4.591Z" transform="translate(98.157 -98.502)" fill="#fff"/>
    <text id="FH" transform="translate(178.944 395.613)" fill="#fff" font-size="99" font-family="ProximaNova-Extrabld, Proxima Nova"><tspan x="0" y="0">FH</tspan></text>
  </g>
</svg>
