<svg xmlns="http://www.w3.org/2000/svg" width="71.961" height="79.309" viewBox="0 0 71.961 79.309">
  <g id="Group_110065" data-name="Group 110065" transform="translate(-127.873 -229)">
    <path id="Path_152557" data-name="Path 152557" d="M102.42,349.77a10.822,10.822,0,0,0-3.391-3.324l-17.009-9.815-7.811-4.5a12.338,12.338,0,0,0-11.168,0l-7.622,4.385-17.2,9.935a10.9,10.9,0,0,0-3.34,3.221,11.986,11.986,0,0,0-2.244,6.457v28.658a12.37,12.37,0,0,0,5.584,9.661L49.2,400.78l13.841,7.983a12.338,12.338,0,0,0,11.168,0l13.96-8.051,10.86-6.27c.034-.017.068-.051.12-.086a12.374,12.374,0,0,0,5.447-9.592v-28.64a11.81,11.81,0,0,0-2.175-6.355Z" transform="translate(95.238 -101.79)" fill="#3591ff"/>
    <path id="Path_152559" data-name="Path 152559" d="M101.078,352.764a9.617,9.617,0,0,0-1.353-1.644,10.352,10.352,0,0,0-1.679-1.319L74.853,336.423a10.163,10.163,0,0,0-4.984-1.182,10.281,10.281,0,0,0-5,1.182l-23.176,13.4a9.153,9.153,0,0,0-1.645,1.268,9.983,9.983,0,0,0-1.336,1.593v.017a10.493,10.493,0,0,0-1.439,2.741,11.329,11.329,0,0,0-.582,3.032v26.774a11.118,11.118,0,0,0,5,8.65L64.867,407.27a10.281,10.281,0,0,0,5,1.182,10.163,10.163,0,0,0,4.984-1.182l13.053-7.52c2.484-1.439,8.342-4.385,10.244-5.927a10.433,10.433,0,0,0,3.46-3.734,10.13,10.13,0,0,0,1.439-4.848V358.468a10.916,10.916,0,0,0-.566-2.98,11.541,11.541,0,0,0-1.387-2.707Zm-.72-2.3a11.461,11.461,0,0,1,1.473,1.8,12.177,12.177,0,0,1,1.508,2.929,11.512,11.512,0,0,1,.6,3.237l.017,26.808a11.136,11.136,0,0,1-1.558,5.293,11.369,11.369,0,0,1-3.769,4.06l-.034.017a.359.359,0,0,1-.086.051l-10.158,5.875-13.035,7.52a12.049,12.049,0,0,1-10.895,0l-23.193-13.4a11.023,11.023,0,0,1-3.854-4.06,11.2,11.2,0,0,1-1.593-5.361V358.434a11.908,11.908,0,0,1,.634-3.289,12.206,12.206,0,0,1,1.542-2.963,11.043,11.043,0,0,1,1.473-1.747,10.367,10.367,0,0,1,1.8-1.4c6.972-4.608,15.742-9.1,23.193-13.4a12.05,12.05,0,0,1,10.895,0c7.725,4.471,15.45,8.993,23.193,13.4a11.686,11.686,0,0,1,1.85,1.439Z" transform="translate(93.993 -103.192)" fill="#fff"/>
    <text id="FH" transform="translate(143.88 279.699)" fill="#fff" font-size="29" font-family="ProximaNova-Extrabld, Proxima Nova"><tspan x="0" y="0">FH</tspan></text>
  </g>
</svg>
