<svg xmlns="http://www.w3.org/2000/svg" width="147.032" height="35.592" viewBox="0 0 147.032 35.592">
  <path id="Path_152586" data-name="Path 152586" d="M1.546,1.257c0,9.8,8.257,17.759,19.389,17.759,9.71,0,16.23-.043,16.23-.043,1.364,0,2.281-1.375,2.282-2.828l0-16.289c0-1.367-1.375-2.284-2.828-2.284S33.79-1.51,33.79-.144V13.317H20.935C13.846,13.318,7.7,7.9,7.7,1.257S13.846-10.8,20.935-10.8l16.228,0c1.368,0,2.284-1.375,2.284-2.828A2.6,2.6,0,0,0,37.2-16.459c-.082,0-6.536-.044-16.267-.044C9.8-16.5,1.546-8.543,1.546,1.257Zm44.914-16c-.009.09,0,32.041,0,32.065,0,1.038,1.413,1.683,2.828,1.683s2.828-.636,2.828-1.683V-14.764c-.04-1.035-1.4-1.692-2.828-1.692C47.894-16.456,46.515-15.854,46.46-14.742Zm12.665,16.3c0,9.638,8.261,17.458,19.389,17.458,9.71,0,16.23-.043,16.23-.043,1.364,0,2.281-1.375,2.282-2.828l0-16.289c0-1.367-1.375-2.284-2.828-2.284s-2.828.917-2.828,2.284V13.317H78.515c-7.1,0-13.231-5.293-13.231-11.761S71.18-10.2,77.9-10.2l16.838,0c1.368,0,2.284-1.375,2.284-2.828a2.6,2.6,0,0,0-2.245-2.828c-.08,0-6.615-.044-16.877-.044C67.333-15.9,59.125-8.078,59.125,1.557Zm44.914-16.3c-.009.09,0,32.041,0,32.065,0,1.038,1.413,1.683,2.828,1.683s2.828-.636,2.828-1.683V-14.764c-.04-1.035-1.4-1.692-2.828-1.692C105.473-16.456,104.095-15.854,104.04-14.742Zm13.975,3.762c.184.016,4.695.006,11.132.005,0,8.095.005,27.767.005,27.767,0,1.326,1.476,2.213,3.018,2.213s3.018-.875,3.018-2.213V-10.976l11.107,0a2.544,2.544,0,0,0,2.284-2.739,2.538,2.538,0,0,0-2.284-2.739H133.127a5.375,5.375,0,0,0-.958-.117,3.551,3.551,0,0,0-.962.117H118.037a2.558,2.558,0,0,0-2.275,2.739C115.761-12.37,118.015-10.98,118.015-10.98Z" transform="translate(-1.545 16.576)" fill="#fff"/>
</svg>
