<svg xmlns="http://www.w3.org/2000/svg" width="103.38" height="103.926" viewBox="0 0 103.38 103.926">
  <g id="Group_89715" data-name="Group 89715" transform="translate(-4443.118 12442.201)">
    <path id="Path_152568" data-name="Path 152568" d="M4519.593-965.171c-9.195-.041-21.987,4.144-27.985,19.972,6.513-22.8,35.814-42.4,58.912-42.4l0,0c5.613.094,10.178,5.06,10.178,11.118h0c0,6.116-4.658,11.119-10.339,11.119-14.844,0-15.931-.135-30.764.186Z" transform="translate(-24.38 -11454.502)" fill="#ff36ca"/>
    <path id="Path_152569" data-name="Path 152569" d="M4457.063-924.562a29.646,29.646,0,0,1-1.351,2.748,29.456,29.456,0,0,1-24.676,15.091,29.42,29.42,0,0,1-22.369-9.125,29.451,29.451,0,0,1-8.1-20.412,29.476,29.476,0,0,1,4.224-15.078q.543-.9,1.146-1.753c8.248-16.837,36.918-29.206,54.577-34.315V-988h-27.3q-1.6-.1-3.218-.1a51.887,51.887,0,0,0-16.847,2.794,52.341,52.341,0,0,0-10.73,5.127,51.848,51.848,0,0,0-20.07,23.342l.018-.1a51.584,51.584,0,0,0-2.441,6.881l-.536,3.455s.183,5.361.547,16.085q15.18,41.239,63.522,30.005,16.573-9.229,13.606-24.062Z" transform="translate(65.107 -11454.105)" fill="#ff36ca"/>
    <path id="Path_152570" data-name="Path 152570" d="M4407.287-737.654a52.044,52.044,0,0,0,12.608,2.751,51.988,51.988,0,0,0,24.092-3.543,52.143,52.143,0,0,0,28.645-28.414c11.086-26.885-18.02-26.751-18.707-17.564a29.227,29.227,0,0,1-3.63,12.091c-17.259,30.925-79.96,20.026-75.768-28.311a51.521,51.521,0,0,0-.929,24.084,51.865,51.865,0,0,0,5.211,14.509,52.012,52.012,0,0,0,28.48,24.4Z" transform="translate(70.525 -11603.584)" fill="#e87cfc"/>
    <path id="Path_152571" data-name="Path 152571" d="M4623.544-740.581a51.693,51.693,0,0,1-44.961,26.2c28.72-5.7,29.565-22.971,29.2-38.2H4575.86c-5.687,0-10.339-5.084-10.339-11.3h0c0-6.214,4.657-11.3,10.339-11.3h41.313l.22,0h.046l.224,0h0c18.684,0,11.758,24.374,5.88,34.592Z" transform="translate(-83.321 -11623.896)" fill="#ff36ca"/>
  </g>
</svg>
